{
  "accessors": [
    {
      "bufferView": 2,
      "componentType": 5126,
      "count": 1776,
      "max": [
        0.07683563232421875,
        198.83706665039063,
        244.06961059570313
      ],
      "min": [
        -199.92315673828125,
        -1.1629409790039063,
        -0.19675420224666595
      ],
      "type": "VEC3"
    },
    {
      "bufferView": 2,
      "byteOffset": 21312,
      "componentType": 5126,
      "count": 1776,
      "max": [
        1.0,
        1.0,
        1.0
      ],
      "min": [
        -1.0,
        -1.0,
        -1.0
      ],
      "type": "VEC3"
    },
    {
      "bufferView": 3,
      "componentType": 5126,
      "count": 1776,
      "max": [
        1.0,
        1.0,
        1.0,
        1.0
      ],
      "min": [
        -1.0,
        -1.0,
        -1.0,
        -1.0
      ],
      "type": "VEC4"
    },
    {
      "bufferView": 1,
      "componentType": 5126,
      "count": 1776,
      "max": [
        0.9505707025527954,
        0.9915937781333923
      ],
      "min": [
        0.00670902244746685,
        0.006815535482019186
      ],
      "type": "VEC2"
    },
    {
      "bufferView": 0,
      "componentType": 5125,
      "count": 2664,
      "type": "SCALAR"
    },
    {
      "bufferView": 2,
      "byteOffset": 42624,
      "componentType": 5126,
      "count": 588,
      "max": [
        3.9646835327148438,
        4.749654769897461,
        231.26153564453125
      ],
      "min": [
        -197.04067993164063,
        -3.45648193359375,
        11.338419914245605
      ],
      "type": "VEC3"
    },
    {
      "bufferView": 2,
      "byteOffset": 49680,
      "componentType": 5126,
      "count": 588,
      "max": [
        1.0,
        1.0,
        1.0
      ],
      "min": [
        -1.0,
        -1.0,
        -1.0
      ],
      "type": "VEC3"
    },
    {
      "bufferView": 3,
      "byteOffset": 28416,
      "componentType": 5126,
      "count": 588,
      "max": [
        1.0,
        1.0,
        0.6505692005157471,
        1.0
      ],
      "min": [
        -1.0,
        -1.0,
        -0.6500381827354431,
        -1.0
      ],
      "type": "VEC4"
    },
    {
      "bufferView": 1,
      "byteOffset": 14208,
      "componentType": 5126,
      "count": 588,
      "max": [
        0.9999160766601563,
        0.9443776607513428
      ],
      "min": [
        0.000222121860133484,
        0.2901093363761902
      ],
      "type": "VEC2"
    },
    {
      "bufferView": 0,
      "byteOffset": 10656,
      "componentType": 5125,
      "count": 1350,
      "type": "SCALAR"
    }
  ],
  "asset": {
    "extras": {
      "author": "Thunder (https://sketchfab.com/thunderpwn)",
      "license": "CC-BY-4.0 (http://creativecommons.org/licenses/by/4.0/)",
      "source": "https://sketchfab.com/3d-models/cage-f12cc13dec7b4b7282a51afe432ae808",
      "title": "Cage"
    },
    "generator": "Sketchfab-12.66.0",
    "version": "2.0"
  },
  "bufferViews": [
    {
      "buffer": 0,
      "byteLength": 16056,
      "name": "floatBufferViews",
      "target": 34963
    },
    {
      "buffer": 0,
      "byteLength": 18912,
      "byteOffset": 16056,
      "byteStride": 8,
      "name": "floatBufferViews",
      "target": 34962
    },
    {
      "buffer": 0,
      "byteLength": 56736,
      "byteOffset": 34968,
      "byteStride": 12,
      "name": "floatBufferViews",
      "target": 34962
    },
    {
      "buffer": 0,
      "byteLength": 37824,
      "byteOffset": 91704,
      "byteStride": 16,
      "name": "floatBufferViews",
      "target": 34962
    }
  ],
  "buffers": [
    {
      "byteLength": 129528,
      "uri": "scene.bin"
    }
  ],
  "images": [
    {
      "uri": "textures/Scene_-_Root_baseColor.png"
    },
    {
      "uri": "textures/Scene_-_Root_metallicRoughness.png"
    },
    {
      "uri": "textures/Scene_-_Root_normal.png"
    }
  ],
  "materials": [
    {
      "doubleSided": true,
      "name": "Scene_-_Root",
      "normalTexture": {
        "index": 2
      },
      "occlusionTexture": {
        "index": 1
      },
      "pbrMetallicRoughness": {
        "baseColorTexture": {
          "index": 0
        },
        "metallicRoughnessTexture": {
          "index": 1
        }
      }
    }
  ],
  "meshes": [
    {
      "name": "cage__0",
      "primitives": [
        {
          "attributes": {
            "NORMAL": 1,
            "POSITION": 0,
            "TANGENT": 2,
            "TEXCOORD_0": 3
          },
          "indices": 4,
          "material": 0,
          "mode": 4
        }
      ]
    },
    {
      "name": "c_door__0",
      "primitives": [
        {
          "attributes": {
            "NORMAL": 6,
            "POSITION": 5,
            "TANGENT": 7,
            "TEXCOORD_0": 8
          },
          "indices": 9,
          "material": 0,
          "mode": 4
        }
      ]
    }
  ],
  "nodes": [
    {
      "children": [
        1
      ],
      "matrix": [
        1.0,
        0.0,
        0.0,
        0.0,
        0.0,
        2.220446049250313e-16,
        -1.0,
        0.0,
        0.0,
        1.0,
        2.220446049250313e-16,
        0.0,
        0.0,
        0.0,
        0.0,
        1.0
      ],
      "name": "Sketchfab_model"
    },
    {
      "children": [
        2
      ],
      "matrix": [
        0.009999999776482582,
        0.0,
        0.0,
        0.0,
        0.0,
        0.0,
        0.009999999776482582,
        0.0,
        0.0,
        -0.009999999776482582,
        0.0,
        0.0,
        0.0,
        0.0,
        0.0,
        1.0
      ],
      "name": "cage.fbx"
    },
    {
      "children": [
        3,
        5
      ],
      "name": "RootNode"
    },
    {
      "children": [
        4
      ],
      "matrix": [
        1.0,
        0.0,
        0.0,
        0.0,
        0.0,
        -1.6292067939183141e-07,
        -0.9999999999999868,
        0.0,
        0.0,
        0.9999999999999868,
        -1.6292067939183141e-07,
        0.0,
        0.0,
        0.0,
        0.0,
        1.0
      ],
      "name": "cage"
    },
    {
      "mesh": 0,
      "name": "cage__0"
    },
    {
      "children": [
        6
      ],
      "matrix": [
        0.9690170983930642,
        -4.0386320738562425e-10,
        -0.009582170730326847,
        0.0,
        -0.009888063164391971,
        -1.6291655868805321e-07,
        -0.9999511119083925,
        0.0,
        -1.1941938288934084e-09,
        0.9999999999999868,
        -1.6291271487389736e-07,
        0.0,
        -4.380943298339844,
        0.0,
        -4.458152770996094,
        1.0
      ],
      "name": "c_door"
    },
    {
      "mesh": 1,
      "name": "c_door__0"
    }
  ],
  "samplers": [
    {
      "magFilter": 9729,
      "minFilter": 9987,
      "wrapS": 10497,
      "wrapT": 10497
    }
  ],
  "scene": 0,
  "scenes": [
    {
      "name": "Sketchfab_Scene",
      "nodes": [
        0
      ]
    }
  ],
  "textures": [
    {
      "sampler": 0,
      "source": 0
    },
    {
      "sampler": 0,
      "source": 1
    },
    {
      "sampler": 0,
      "source": 2
    }
  ]
}
