{
  "accessors": [
    {
      "bufferView": 2,
      "componentType": 5126,
      "count": 1939,
      "max": [
        0.9505910277366638,
        0.159279003739357,
        1.8120460510253906
      ],
      "min": [
        -0.9505910277366638,
        -0.23533600568771362,
        -0.00020700000459328294
      ],
      "type": "VEC3"
    },
    {
      "bufferView": 2,
      "byteOffset": 23268,
      "componentType": 5126,
      "count": 1939,
      "max": [
        0.9996901154518127,
        0.9992378950119019,
        1.0
      ],
      "min": [
        -0.9996950030326843,
        -1.0,
        -0.999969482421875
      ],
      "type": "VEC3"
    },
    {
      "bufferView": 1,
      "componentType": 5126,
      "count": 1939,
      "max": [
        0.9958670139312744,
        -0.0027630000840872526
      ],
      "min": [
        0.003647000063210726,
        -0.9962620139122009
      ],
      "type": "VEC2"
    },
    {
      "bufferView": 0,
      "componentType": 5125,
      "count": 5718,
      "type": "SCALAR"
    },
    {
      "bufferView": 2,
      "byteOffset": 46536,
      "componentType": 5126,
      "count": 713,
      "max": [
        0.09756399691104889,
        0.015953000634908676,
        1.7097630500793457
      ],
      "min": [
        -0.09756399691104889,
        -0.1234230026602745,
        1.5306390523910522
      ],
      "type": "VEC3"
    },
    {
      "bufferView": 2,
      "byteOffset": 55092,
      "componentType": 5126,
      "count": 713,
      "max": [
        0.9983919858932495,
        0.998903214931488,
        0.9962700009346008
      ],
      "min": [
        -0.9984169006347656,
        -0.9992258548736572,
        -0.9997254610061646
      ],
      "type": "VEC3"
    },
    {
      "bufferView": 1,
      "byteOffset": 15512,
      "componentType": 5126,
      "count": 713,
      "max": [
        0.9954429864883423,
        -0.004166000057011843
      ],
      "min": [
        0.004525000229477882,
        -0.9962630271911621
      ],
      "type": "VEC2"
    },
    {
      "bufferView": 0,
      "byteOffset": 22872,
      "componentType": 5125,
      "count": 3342,
      "type": "SCALAR"
    }
  ],
  "asset": {
    "extras": {
      "author": "Tigerar1 (https://sketchfab.com/allanromanreyes)",
      "license": "SKETCHFAB Standard (https://sketchfab.com/licenses)",
      "source": "https://sketchfab.com/3d-models/roronoa-zoro-a9886315d2ae4c12b2a716543ca7754b",
      "title": "Roronoa Zoro"
    },
    "generator": "Sketchfab-15.87.0",
    "version": "2.0"
  },
  "bufferViews": [
    {
      "buffer": 0,
      "byteLength": 36240,
      "name": "floatBufferViews",
      "target": 34963
    },
    {
      "buffer": 0,
      "byteLength": 21216,
      "byteOffset": 36240,
      "byteStride": 8,
      "name": "floatBufferViews",
      "target": 34962
    },
    {
      "buffer": 0,
      "byteLength": 63648,
      "byteOffset": 57456,
      "byteStride": 12,
      "name": "floatBufferViews",
      "target": 34962
    }
  ],
  "buffers": [
    {
      "byteLength": 121104,
      "uri": "scene.bin"
    }
  ],
  "images": [
    {
      "uri": "textures/0000_tex_02_zro_bodyout.png_baseColor.png"
    },
    {
      "uri": "textures/0001_tex_02_zro_faceout.png_baseColor.png"
    }
  ],
  "materials": [
    {
      "doubleSided": true,
      "name": "0000_tex_02_zro_bodyout.png",
      "pbrMetallicRoughness": {
        "baseColorTexture": {
          "index": 0
        },
        "metallicFactor": 0.0,
        "roughnessFactor": 0.7621585769994558
      }
    },
    {
      "doubleSided": true,
      "name": "0001_tex_02_zro_faceout.png",
      "pbrMetallicRoughness": {
        "baseColorTexture": {
          "index": 1
        },
        "metallicFactor": 0.0,
        "roughnessFactor": 0.7621585769994558
      }
    }
  ],
  "meshes": [
    {
      "name": "Object_0",
      "primitives": [
        {
          "attributes": {
            "NORMAL": 1,
            "POSITION": 0,
            "TEXCOORD_0": 2
          },
          "indices": 3,
          "material": 0,
          "mode": 4
        }
      ]
    },
    {
      "name": "Object_1",
      "primitives": [
        {
          "attributes": {
            "NORMAL": 5,
            "POSITION": 4,
            "TEXCOORD_0": 6
          },
          "indices": 7,
          "material": 1,
          "mode": 4
        }
      ]
    }
  ],
  "nodes": [
    {
      "children": [
        1
      ],
      "matrix": [
        1.0,
        0.0,
        0.0,
        0.0,
        0.0,
        2.220446049250313e-16,
        -1.0,
        0.0,
        0.0,
        1.0,
        2.220446049250313e-16,
        0.0,
        0.0,
        0.0,
        0.0,
        1.0
      ],
      "name": "Sketchfab_model"
    },
    {
      "children": [
        2,
        3
      ],
      "name": "Zoro.obj.cleaner.materialmerger.gles"
    },
    {
      "mesh": 0,
      "name": "Object_2"
    },
    {
      "mesh": 1,
      "name": "Object_3"
    }
  ],
  "samplers": [
    {
      "magFilter": 9729,
      "minFilter": 9987,
      "wrapS": 10497,
      "wrapT": 10497
    }
  ],
  "scene": 0,
  "scenes": [
    {
      "name": "Sketchfab_Scene",
      "nodes": [
        0
      ]
    }
  ],
  "textures": [
    {
      "sampler": 0,
      "source": 0
    },
    {
      "sampler": 0,
      "source": 1
    }
  ]
}
